Patient4_TMGait_0pt7_01_left_16_EMG.mot
version=1
nRows=13
nColumns=33
inDegrees=no
endheader
time	1LAddLong	2LGlutMax	3LGlutMed	4LIliopsoas	5LSemiMemb	6LBicFemLong	7LRecFem	8LVastMed	9LVastLat	10LGasMed	11LTibAnt	12lTibPost	13LPeroneusLong	14LSol	15LExtDigLong	16LFlexDigLong	17RAddLong	18RGlutMax	19RGlutMed	20RIliopsoas	21RSemiMemb	22RBicFemLong	23RRecFem	24RVastMed	25RVastLat	26RGasMed	27RTibAnt	28RTibPost	29RPeroneusLong	30RSol	31RExtDigLong	32RFlexDigLong
18.717	0.038757	1.0414	-0.38086	-0.003815	-0.062561	-0.27451	0.20187	0.003815	-0.43213	-0.007782	0.01297	0.015869	-0.061798	-0.32532	0.011139	0.043793	0.092468	0.3656	0.42923	0.033264	0.084686	0.014038	0.5603	-0.10834	0.037689	-0.023804	0.14481	-0.010529	0.12466	-0.055237	0	-0.00412
18.718	0.027161	0.92026	-0.27313	-0.005951	-0.078888	0.085907	0.17227	-0.009613	-0.48508	0.12924	0.014954	0.008698	-0.066528	-0.45395	-0.021667	0.033264	0.10559	0.38162	0.40298	0.003204	0.082245	0.056	0.54779	-0.032043	0.055847	-0.014191	-0.039368	-0.00473	0.14297	-0.090027	0.001526	-0.000305
18.719	0.018158	0.87326	-0.11108	0.002899	-0.099945	0.37705	0.14969	-0.00351	-0.42099	0.1886	0.025177	0.023193	0.085907	-0.32288	0.006104	0.012054	0.07782	0.30762	0.30212	0.016022	0.074158	0.11993	0.54977	-0.023499	0.05249	-0.013733	0.21439	-0.00473	0.083008	-0.079956	-0.001221	-0.00946
18.72	-0.000916	0.82214	-0.028076	0.018311	-0.1561	0.43686	0.088501	0.006256	-0.40771	0.19363	0.026093	0.036774	0.2356	-0.1561	0.043335	-0.022125	0.077515	0.30319	0.23071	0.018158	0.067139	0.084991	0.57907	0.071106	0.036774	-0.014038	0.41763	-0.005188	-0.014496	-0.077667	-0.002594	-0.008392
18.721	-0.022125	0.81131	0.071564	-0.004272	-0.19577	0.30884	-0.016022	0.023041	-0.41214	0.10712	0.012665	0.048676	-0.001984	-0.092468	0.033569	-0.03006	-0.023193	0.27435	0.22461	-0.001831	0.042114	0.00946	0.62195	0.039825	-0.011139	-0.012054	0.19516	-0.009766	-0.17151	-0.034027	-0.000153	-0.010223
18.722	-0.028839	0.77698	0.11841	-0.003815	-0.28107	0.14557	-0.19424	0.029907	-0.39002	-0.00412	0.026703	0.050812	-0.26535	-0.3772	-0.010376	0.063629	-0.048676	0.26382	0.30823	0.025024	0.014954	-0.036774	0.71823	0.032349	-0.030518	-0.001373	0.10651	-0.007477	-0.22018	-0.15243	0.001373	-0.013428
18.723	0.002747	0.83176	0.14084	0.021057	-0.13458	0.10712	-0.42694	0.024872	-0.33234	-0.16251	0.019836	0.068817	-0.00473	-0.52261	-0.046844	0.11215	-0.0737	0.23834	0.45792	0.055389	0.016327	-0.011139	0.73395	-0.018158	-0.034485	0.01358	0.21881	-0.005188	0.013733	-0.34805	0.002899	-0.004578
18.724	0.028534	0.81741	0.12573	0.021667	-0.027466	-0.32211	-0.63934	-0.005188	-0.2063	-0.16998	0.019226	0.082092	0.15045	-0.33478	-0.02243	0.009308	-0.045471	0.23712	0.59616	0.070801	0.019684	-0.02594	0.77026	-0.007477	-0.052185	0.021667	-0.96954	-0.009003	0.1471	-0.37201	0.005188	-0.017548
18.725	0.040894	0.89127	0.079346	-0.000153	-0.00473	-0.46158	-0.66208	-0.008545	-0.11078	-0.11368	0.033875	0.076294	-0.095062	-0.14008	-0.016632	-0.04364	-0.039673	0.18433	0.27435	0.089264	0.003815	-0.042419	0.69748	0.010223	-0.060272	0.02655	-1.4865	-0.005035	0.2153	-0.31693	0.002899	-0.014496
18.726	0.029297	0.91278	0.1767	0.006256	0.057678	-0.06424	-0.52063	-0.015564	-0.025787	-0.097351	0.033875	0.098114	-0.16739	0.14664	-0.005646	-0.021057	-0.054321	0.26535	0.22308	0.049438	0.0177	-0.03067	0.71854	-0.012207	-0.066681	0.03067	-0.82932	-0.003357	0.29785	-0.22873	0.005035	-0.015259
18.727	0.015869	0.87265	0.1915	0.001221	0.012054	0.5098	-0.35904	-0.002136	-0.003204	-0.11429	0.023346	0.095673	-0.032806	0.25909	0.028076	-0.00412	-0.03006	0.27618	0.37888	-0.088654	0.054169	-0.00351	0.70419	-0.056458	-0.065918	0.018005	0.12604	-0.014038	0.053711	-0.036621	0.00351	-0.020294
18.728	-0.002594	0.83786	0.15335	0.003662	-0.096588	0.60638	-0.35172	0.014648	-0.039825	-0.079498	0.007172	0.10407	-0.088043	0.099182	0.016479	0.002747	-0.010071	0.22614	0.13412	-0.075531	0.076447	0.048523	0.69534	-0.031128	-0.067902	0.014038	0.1918	-0.010529	0.078583	0.047455	0.00061	-0.015259
18.729	-0.010986	0.87372	0.023499	-0.001831	-0.15793	0.27283	-0.40604	0.013885	-0.013123	-0.028229	0.011902	0.10819	0.032349	0.059967	0.007935	0.015411	-0.019684	0.17899	-0.32333	-0.070038	0.072632	0.043793	0.6218	-0.043488	-0.037994	0.013733	-0.33981	-0.01236	0.15152	0.042572	0.001526	-0.016785
